<?xml version="1.0" standalone="no"?>
<!DOCTYPE svg PUBLIC "-//W3C//DTD SVG 20010904//EN"
 "http://www.w3.org/TR/2001/REC-SVG-20010904/DTD/svg10.dtd">
<svg version="1.0" xmlns="http://www.w3.org/2000/svg"
 width="1032.000000pt" height="1032.000000pt" viewBox="0 0 1032.000000 1032.000000"
 preserveAspectRatio="xMidYMid meet">
<metadata>
Created by potrace 1.14, written by Peter Selinger 2001-2017
</metadata>
<g transform="translate(0.000000,1032.000000) scale(0.100000,-0.100000)"
fill="#000000" stroke="none">
<path d="M5877 7962 c-6 -11 -2 -647 4 -647 3 0 76 56 163 125 86 69 169 134
183 145 15 11 34 27 43 36 17 16 36 14 58 -8 8 -7 30 -26 50 -41 21 -15 39
-29 42 -32 3 -3 43 -34 90 -69 152 -112 302 -166 455 -163 68 1 120 6 120 12
0 1 11 3 25 5 46 6 137 45 196 84 68 44 121 93 183 169 39 48 43 55 32 76 -32
59 -149 178 -202 206 -13 7 -27 17 -30 22 -3 5 -12 10 -20 12 -8 1 -28 10 -45
19 -57 30 -168 54 -256 55 -110 1 -202 -20 -303 -68 -72 -35 -215 -132 -223
-152 -2 -4 -8 -8 -13 -8 -6 0 -19 -8 -30 -19 -11 -10 -39 -32 -63 -49 l-44
-32 -28 23 c-16 12 -36 27 -44 34 -8 6 -62 49 -120 94 -58 46 -111 89 -118 96
-7 7 -17 13 -21 13 -4 0 -23 16 -44 35 -20 19 -38 31 -40 27z"/>
<path d="M4254 7636 c0 -160 3 -223 11 -218 36 23 115 88 115 94 0 4 7 8 15 8
7 0 18 6 22 13 9 13 117 97 125 97 4 0 53 -35 110 -78 145 -109 209 -137 330
-141 74 -3 129 9 205 45 51 24 145 107 178 158 18 26 17 27 -22 74 -53 63
-126 117 -193 144 -43 17 -77 22 -155 22 -108 1 -173 -17 -260 -73 -43 -28
-43 -28 -128 -96 l-57 -46 -36 22 c-20 12 -47 32 -59 45 -13 13 -27 24 -31 24
-6 0 -113 85 -145 115 -9 8 -18 15 -20 15 -3 0 -5 -101 -5 -224z"/>
<path d="M3357 7759 c-9 -6 -17 -8 -17 -5 0 7 -86 -41 -112 -62 -68 -57 -68
-50 13 -109 83 -61 150 -77 252 -60 9 2 23 9 29 15 7 7 17 12 23 12 13 0 72
56 85 81 12 21 -50 87 -107 114 -42 21 -139 29 -166 14z"/>
<path d="M3005 7645 c0 -63 2 -116 6 -118 7 -3 149 106 149 114 0 7 -142 119
-151 119 -2 0 -4 -52 -4 -115z"/>
<path d="M2025 7678 c-16 -6 -38 -18 -48 -26 -16 -15 -16 -16 10 -33 47 -31
106 -34 158 -9 39 19 44 24 33 38 -17 20 -71 42 -100 41 -13 0 -36 -5 -53 -11z"/>
<path d="M1875 7643 c1 -21 3 -41 4 -45 1 -8 70 34 71 43 0 4 -65 39 -74 39
-2 0 -2 -17 -1 -37z"/>
<path d="M5430 6939 c-19 -4 -48 -10 -65 -12 -149 -26 -300 -108 -541 -297
-39 -30 -86 -66 -104 -80 -19 -14 -45 -34 -58 -45 l-24 -20 84 -65 c45 -35 88
-68 93 -73 116 -99 370 -258 436 -271 8 -2 21 -6 29 -9 94 -35 291 -52 410
-35 243 34 455 165 624 386 l48 63 -37 56 c-49 73 -174 198 -250 250 -104 70
-222 120 -339 145 -62 12 -258 17 -306 7z"/>
<path d="M4050 6485 c0 -250 3 -455 6 -455 6 0 75 50 89 66 6 6 30 26 55 44
25 19 52 40 60 47 8 7 56 45 105 84 50 39 99 78 110 87 11 9 50 40 87 67 37
28 67 55 67 60 0 6 -61 57 -136 115 -74 58 -146 114 -158 125 -13 11 -36 29
-51 40 -15 11 -71 55 -125 98 -53 42 -99 77 -103 77 -3 0 -6 -205 -6 -455z"/>
<path d="M7940 6894 c-89 -17 -218 -65 -293 -110 -34 -21 -64 -41 -67 -44 -3
-3 -21 -17 -40 -30 -19 -13 -49 -35 -66 -49 -17 -14 -44 -35 -59 -46 -52 -36
-150 -117 -153 -124 -2 -7 49 -49 183 -150 33 -25 62 -48 65 -52 12 -15 148
-103 199 -128 59 -30 165 -67 216 -76 17 -2 41 -7 55 -10 32 -7 188 -7 220 0
14 3 45 8 70 11 25 3 52 10 60 14 8 4 17 8 20 8 56 4 228 106 310 184 50 47
160 180 160 193 0 5 -18 31 -39 60 -147 195 -340 319 -546 351 -73 11 -229 10
-295 -2z"/>
<path d="M6727 6893 c-3 -7 -2 -795 2 -815 0 -5 9 0 19 10 20 18 31 27 102 82
25 19 47 37 50 40 3 3 25 21 50 40 25 19 50 39 56 45 6 5 46 37 89 70 43 33
96 75 117 94 l38 33 -28 22 c-15 11 -34 26 -42 33 -8 7 -44 35 -80 63 -36 28
-72 56 -80 63 -8 7 -35 28 -60 47 -25 19 -50 39 -56 45 -7 5 -44 35 -83 65
-39 30 -71 58 -71 62 0 10 -18 10 -23 1z"/>
<path d="M3094 6716 c-27 -7 -74 -24 -103 -39 -57 -28 -246 -165 -254 -183 -6
-13 186 -161 248 -192 35 -17 94 -37 145 -49 21 -5 141 -4 165 1 51 10 129 41
161 62 19 13 37 24 39 24 8 0 80 75 108 112 28 36 28 37 10 65 -31 49 -124
132 -177 158 -109 53 -228 67 -342 41z"/>
<path d="M2420 6485 l0 -236 38 28 c20 15 42 33 48 38 6 6 46 37 89 70 91 70
130 104 124 108 -2 2 -49 39 -104 83 -55 43 -102 81 -105 84 -11 12 -79 60
-84 60 -3 0 -6 -106 -6 -235z"/>
<path d="M1510 6613 c-30 -13 -56 -28 -58 -33 -2 -6 -8 -10 -13 -10 -9 0 -37
-21 -71 -52 -10 -10 -22 -18 -28 -18 -20 0 -9 -18 31 -51 23 -19 46 -36 52
-38 6 -2 20 -12 30 -22 31 -29 126 -56 185 -53 84 4 149 32 209 92 l54 53 -23
32 c-12 18 -28 35 -35 40 -6 4 -18 13 -25 20 -69 66 -209 84 -308 40z"/>
<path d="M1132 6482 l2 -148 88 69 c94 74 108 89 91 94 -6 2 -22 13 -35 25
-12 11 -39 32 -58 47 -19 14 -44 34 -54 44 -11 9 -23 17 -28 17 -4 0 -7 -67
-6 -148z"/>
<path d="M215 6558 c-43 -9 -115 -54 -115 -72 0 -6 21 -24 48 -41 61 -39 131
-41 179 -5 44 32 48 49 19 78 -35 35 -83 50 -131 40z"/>
<path d="M0 6484 l0 -65 46 33 46 33 -39 32 c-21 18 -41 33 -45 33 -5 0 -8
-30 -8 -66z"/>
<path d="M9208 5734 c-2 -2 -26 -6 -53 -8 -82 -8 -262 -55 -290 -75 -5 -4 -30
-15 -55 -24 -25 -9 -69 -33 -98 -52 -30 -19 -58 -35 -63 -35 -5 0 -9 -4 -9
-10 0 -5 -5 -10 -11 -10 -9 0 -33 -16 -94 -63 -5 -4 -28 -21 -50 -38 -22 -16
-47 -35 -55 -42 -8 -7 -72 -56 -142 -110 -71 -54 -128 -102 -128 -106 0 -7
186 -156 301 -241 12 -8 44 -33 72 -55 178 -140 352 -220 577 -266 70 -15 300
-19 365 -7 22 5 56 11 75 14 19 3 43 10 53 15 9 5 17 7 17 5 0 -3 19 2 43 10
23 9 48 17 55 18 7 1 18 8 24 14 7 7 18 12 25 12 24 0 184 97 248 150 34 29
162 157 186 186 50 63 99 135 99 144 0 24 -99 149 -190 240 -61 61 -129 117
-189 155 -52 33 -97 60 -100 60 -3 1 -19 8 -36 17 -64 33 -195 73 -305 93 -40
7 -267 15 -272 9z"/>
<path d="M7429 5728 c-3 -7 -4 -1138 0 -1138 4 0 128 96 151 117 16 14 37 31
91 75 110 86 219 172 249 197 77 63 206 163 220 171 8 5 13 10 10 13 -3 2 -77
60 -165 128 -88 68 -162 126 -165 129 -13 14 -160 130 -165 130 -3 0 -20 13
-38 29 -42 38 -187 152 -188 149z"/>
<path d="M3239 5478 c0 -29 2 -507 2 -533 1 -5 0 -30 0 -55 -1 -66 1 -80 13
-73 14 8 90 66 96 73 3 4 48 40 100 80 52 41 97 77 100 80 22 25 133 101 143
97 9 -4 133 -97 238 -180 83 -66 200 -123 293 -143 92 -21 266 -23 316 -4 3 1
10 3 15 4 18 2 89 27 125 43 98 44 236 162 296 253 l27 40 -28 37 c-109 146
-252 248 -405 289 -117 30 -325 23 -415 -15 -106 -45 -238 -128 -355 -224
-103 -83 -113 -90 -125 -81 -31 22 -364 285 -392 309 -45 38 -43 38 -44 3z"/>
<path d="M6468 5455 c-1 -2 -25 -6 -53 -9 -109 -11 -216 -62 -345 -163 -166
-130 -159 -127 -202 -90 -14 12 -74 60 -133 106 -58 46 -111 89 -118 95 -7 6
-27 22 -44 35 -30 20 -33 21 -34 4 0 -10 -2 -141 -3 -291 -2 -207 0 -272 9
-270 7 2 30 18 51 36 32 27 95 77 244 195 8 7 28 22 43 34 l29 22 96 -75 c140
-109 217 -158 302 -190 67 -24 88 -28 195 -28 99 0 131 4 185 23 115 40 233
130 307 234 l26 36 -38 48 c-53 66 -110 119 -171 159 -50 32 -153 73 -204 80
-47 6 -138 13 -142 9z"/>
<path d="M2427 5324 c-3 -3 -22 -7 -43 -10 -21 -3 -57 -13 -80 -23 -40 -18
-173 -110 -174 -121 0 -6 126 -100 160 -119 39 -21 123 -39 166 -34 80 8 134
34 190 89 61 61 61 70 1 124 -53 48 -108 78 -158 85 -24 4 -46 8 -50 11 -3 2
-9 1 -12 -2z"/>
<path d="M1935 5165 c0 -80 1 -145 3 -145 9 0 182 143 182 150 0 5 -9 14 -19
20 -11 5 -25 16 -33 23 -24 24 -120 97 -127 97 -3 0 -6 -65 -6 -145z"/>
<path d="M893 5226 c-23 -11 -54 -31 -69 -43 l-29 -22 27 -25 c83 -79 189 -90
263 -28 45 37 48 48 23 78 -53 60 -145 78 -215 40z"/>
<path d="M679 5228 c-3 -41 -4 -144 -1 -151 3 -7 112 73 112 83 0 3 -18 16
-40 30 -22 13 -42 30 -44 37 -7 17 -26 17 -27 1z"/>
<path d="M5485 4292 c-2 -2 -23 -5 -47 -8 -54 -5 -66 -7 -153 -34 -71 -21
-217 -89 -223 -102 -2 -5 -8 -8 -13 -8 -5 0 -17 -6 -26 -14 -18 -14 -191 -145
-310 -235 -34 -25 -64 -50 -66 -56 -3 -5 39 -43 93 -83 53 -41 108 -83 123
-95 14 -12 51 -40 83 -62 31 -22 62 -45 68 -51 28 -27 169 -95 252 -123 122
-41 147 -45 304 -45 108 0 151 4 217 22 170 46 333 142 437 261 73 81 81 92
114 138 12 17 22 33 22 36 0 11 -115 152 -158 195 -145 140 -334 235 -517 258
-49 6 -195 10 -200 6z"/>
<path d="M4050 3831 c0 -301 3 -461 10 -461 6 0 10 3 10 8 0 4 32 32 71 61 39
30 76 60 83 66 6 6 29 24 51 40 22 17 49 37 60 47 56 46 234 186 263 206 17
13 32 27 32 32 0 5 -39 39 -87 76 -49 38 -89 72 -91 76 -2 4 -10 8 -17 8 -7 0
-15 4 -17 9 -3 8 -326 266 -355 285 -10 6 -13 -88 -13 -453z"/>
<path d="M8048 4255 c-2 -1 -29 -5 -60 -9 -127 -13 -267 -66 -373 -140 -36
-25 -68 -46 -70 -46 -3 0 -13 -7 -22 -16 -10 -8 -73 -58 -140 -110 -99 -76
-126 -93 -140 -85 -27 14 -148 111 -151 122 -2 5 -10 9 -17 9 -7 0 -15 3 -17
8 -1 4 -57 50 -123 102 -66 51 -122 97 -125 100 -7 9 -76 60 -81 60 -2 0 -4
-187 -4 -415 0 -228 2 -415 4 -415 2 0 25 17 50 37 25 21 53 43 61 50 8 6 47
37 85 68 99 79 93 75 170 135 39 30 72 57 75 60 14 14 80 60 87 60 4 0 22 -11
38 -25 31 -25 251 -194 300 -230 15 -11 59 -37 99 -57 336 -175 719 -120 986
142 44 44 113 128 129 157 10 19 8 28 -11 55 -150 210 -358 343 -584 374 -47
6 -162 12 -166 9z"/>
<path d="M3140 4079 c-72 -12 -83 -14 -124 -32 -21 -9 -40 -17 -42 -17 -7 0
-145 -101 -195 -142 -50 -41 -63 -45 -83 -25 -7 6 -28 23 -46 37 -34 26 -86
67 -106 85 -17 15 -45 36 -87 68 l-37 28 -1 -118 c0 -65 -1 -167 -2 -226 -1
-60 0 -113 3 -117 3 -5 33 12 66 38 33 26 99 78 147 116 79 61 89 67 107 55
10 -8 56 -43 101 -77 126 -99 192 -130 309 -148 55 -8 53 -8 117 0 128 15 235
75 324 184 22 26 39 49 39 52 0 16 -81 105 -142 156 -27 23 -133 68 -183 79
-46 10 -115 11 -165 4z"/>
<path d="M1588 3985 c-2 -2 -19 -7 -37 -10 -19 -3 -43 -11 -54 -17 -38 -20
-147 -102 -147 -110 0 -22 -63 14 -141 80 -44 38 -63 52 -70 52 -5 0 -8 -65
-7 -145 1 -80 6 -145 9 -145 4 0 14 6 21 13 7 7 33 28 58 47 25 19 56 45 70
57 14 13 29 23 33 23 5 0 45 -27 90 -59 45 -33 102 -65 127 -72 129 -35 263
12 348 122 11 14 7 24 -29 63 -55 60 -129 96 -207 101 -33 2 -62 2 -64 0z"/>
<path d="M185 3899 c-16 -5 -34 -15 -40 -22 -5 -8 -21 -20 -34 -27 l-24 -12
24 -20 c51 -41 68 -49 112 -54 53 -7 110 16 134 53 14 22 14 25 -3 45 -38 42
-103 57 -169 37z"/>
<path d="M0 3836 c0 -36 2 -66 6 -66 11 0 74 55 74 66 0 9 -32 37 -67 58 -10
5 -13 -9 -13 -58z"/>
<path d="M6844 3003 c-43 -7 -93 -20 -111 -28 -17 -8 -38 -15 -46 -15 -8 0
-20 -7 -27 -15 -7 -8 -17 -15 -22 -15 -18 0 -276 -187 -324 -234 -20 -21 -32
-9 148 -144 168 -127 223 -156 358 -187 63 -14 224 -15 278 -1 12 3 31 8 41
10 59 13 189 86 256 144 19 17 81 87 108 124 l28 36 -24 39 c-53 82 -150 168
-257 227 -29 15 -138 57 -147 56 -2 0 -4 0 -5 1 -54 15 -172 16 -254 2z"/>
<path d="M5877 3003 c-8 -14 -2 -631 6 -640 5 -4 11 -3 15 3 4 5 25 23 47 40
22 16 46 35 53 42 8 7 30 25 50 40 21 15 39 29 42 32 4 4 182 144 199 157 5 3
-20 25 -69 63 -18 14 -81 63 -140 110 -58 47 -121 96 -139 110 -18 14 -39 31
-46 38 -8 6 -16 9 -18 5z"/>
<path d="M4910 2903 c-42 -7 -113 -35 -155 -61 -70 -42 -204 -147 -205 -159 0
-10 106 -95 185 -148 28 -19 110 -59 127 -61 4 -1 9 -2 11 -4 5 -4 56 -10 118
-13 115 -6 229 43 314 136 77 83 78 83 65 107 -28 52 -126 139 -185 164 -89
38 -197 54 -275 39z"/>
<path d="M4259 2898 c-7 -14 -3 -428 4 -428 4 0 15 6 22 13 8 6 20 17 27 22
61 48 155 121 163 128 45 34 68 57 60 57 -5 0 -22 10 -37 23 -56 47 -69 57
-152 122 -47 36 -87 65 -87 63z"/>
<path d="M3009 2810 c-5 -20 -3 -250 2 -250 4 0 9 3 11 8 5 11 134 112 144
112 4 0 33 -19 63 -43 78 -60 130 -80 206 -78 56 2 138 45 174 90 l30 38 -35
42 c-20 22 -42 41 -50 41 -8 0 -14 4 -14 8 0 14 -72 32 -123 32 -61 0 -156
-39 -197 -80 -36 -36 -49 -41 -71 -29 -13 7 -30 18 -37 26 -8 7 -30 26 -50 41
-21 15 -40 31 -44 37 -4 5 -8 8 -9 5z"/>
<path d="M2027 2725 c-39 -13 -67 -32 -67 -45 0 -14 93 -44 131 -43 42 2 89
28 89 49 0 34 -97 58 -153 39z"/>
<path d="M1873 2685 c0 -25 1 -45 3 -45 2 0 19 9 38 21 l36 21 -35 24 c-20 13
-37 24 -39 24 -2 0 -3 -20 -3 -45z"/>
</g>
</svg>
