<?xml version="1.0" encoding="UTF-8"?>
<svg width="480px" height="32px" viewBox="0 0 480 32" version="1.1" xmlns="http://www.w3.org/2000/svg" xmlns:xlink="http://www.w3.org/1999/xlink">
    <title>Group</title>
    <g id="Page-1" stroke="none" stroke-width="1" fill="none" fill-rule="evenodd">
        <g id="Group" fill="#5CCC8C" fill-rule="nonzero">
            <g id="fish_green">
                <path d="M0,0.000984565699 C0,0.000984565699 29.57,23.5309846 34.11,26.5209846 C39.4854791,29.9820458 45.7178212,31.8794478 52.11,32.0009846 C56.2900934,32.0250294 60.4334188,31.2194772 64.3,29.6309846 C68.1678156,27.989935 71.6796471,25.6124862 74.64,22.6309846 C76.5992986,20.584115 78.3916842,18.383761 80,16.0509846 C78.4697871,13.6240375 76.6718528,11.3766197 74.64,9.35098457 C71.6796471,6.36948295 68.1678156,3.99203416 64.3,2.35098457 C60.4258014,0.766739781 56.2754695,-0.0320546521 52.09,0.000984565699 C46.09,0.000984565699 40.64,1.50098457 34.09,5.48098457 C29.74,8.14098457 0,32.0009846 0,32.0009846 L0,0.000984565699 Z" id="Path"></path>
            </g>
            <g id="fish_green-copy" transform="translate(100.000000, 0.000000)">
                <path d="M0,0.000984565699 C0,0.000984565699 29.57,23.5309846 34.11,26.5209846 C39.4854791,29.9820458 45.7178212,31.8794478 52.11,32.0009846 C56.2900934,32.0250294 60.4334188,31.2194772 64.3,29.6309846 C68.1678156,27.989935 71.6796471,25.6124862 74.64,22.6309846 C76.5992986,20.584115 78.3916842,18.383761 80,16.0509846 C78.4697871,13.6240375 76.6718528,11.3766197 74.64,9.35098457 C71.6796471,6.36948295 68.1678156,3.99203416 64.3,2.35098457 C60.4258014,0.766739781 56.2754695,-0.0320546521 52.09,0.000984565699 C46.09,0.000984565699 40.64,1.50098457 34.09,5.48098457 C29.74,8.14098457 0,32.0009846 0,32.0009846 L0,0.000984565699 Z" id="Path"></path>
            </g>
            <g id="fish_green-copy-2" transform="translate(200.000000, 0.000000)">
                <path d="M0,0.000984565699 C0,0.000984565699 29.57,23.5309846 34.11,26.5209846 C39.4854791,29.9820458 45.7178212,31.8794478 52.11,32.0009846 C56.2900934,32.0250294 60.4334188,31.2194772 64.3,29.6309846 C68.1678156,27.989935 71.6796471,25.6124862 74.64,22.6309846 C76.5992986,20.584115 78.3916842,18.383761 80,16.0509846 C78.4697871,13.6240375 76.6718528,11.3766197 74.64,9.35098457 C71.6796471,6.36948295 68.1678156,3.99203416 64.3,2.35098457 C60.4258014,0.766739781 56.2754695,-0.0320546521 52.09,0.000984565699 C46.09,0.000984565699 40.64,1.50098457 34.09,5.48098457 C29.74,8.14098457 0,32.0009846 0,32.0009846 L0,0.000984565699 Z" id="Path"></path>
            </g>
            <g id="fish_green-copy-3" transform="translate(300.000000, 0.000000)">
                <path d="M0,0.000984565699 C0,0.000984565699 29.57,23.5309846 34.11,26.5209846 C39.4854791,29.9820458 45.7178212,31.8794478 52.11,32.0009846 C56.2900934,32.0250294 60.4334188,31.2194772 64.3,29.6309846 C68.1678156,27.989935 71.6796471,25.6124862 74.64,22.6309846 C76.5992986,20.584115 78.3916842,18.383761 80,16.0509846 C78.4697871,13.6240375 76.6718528,11.3766197 74.64,9.35098457 C71.6796471,6.36948295 68.1678156,3.99203416 64.3,2.35098457 C60.4258014,0.766739781 56.2754695,-0.0320546521 52.09,0.000984565699 C46.09,0.000984565699 40.64,1.50098457 34.09,5.48098457 C29.74,8.14098457 0,32.0009846 0,32.0009846 L0,0.000984565699 Z" id="Path"></path>
            </g>
            <g id="fish_green-copy-4" transform="translate(400.000000, 0.000000)">
                <path d="M0,0.000984565699 C0,0.000984565699 29.57,23.5309846 34.11,26.5209846 C39.4854791,29.9820458 45.7178212,31.8794478 52.11,32.0009846 C56.2900934,32.0250294 60.4334188,31.2194772 64.3,29.6309846 C68.1678156,27.989935 71.6796471,25.6124862 74.64,22.6309846 C76.5992986,20.584115 78.3916842,18.383761 80,16.0509846 C78.4697871,13.6240375 76.6718528,11.3766197 74.64,9.35098457 C71.6796471,6.36948295 68.1678156,3.99203416 64.3,2.35098457 C60.4258014,0.766739781 56.2754695,-0.0320546521 52.09,0.000984565699 C46.09,0.000984565699 40.64,1.50098457 34.09,5.48098457 C29.74,8.14098457 0,32.0009846 0,32.0009846 L0,0.000984565699 Z" id="Path"></path>
            </g>
        </g>
    </g>
</svg>