<svg id="Laag_1" data-name="Laag 1" xmlns="http://www.w3.org/2000/svg" viewBox="0 0 128.57 70"><defs><style>.cls-1{fill:#5ccc8c;}</style></defs><path class="cls-1" d="M-.07,19.42s1.75-1.4,2-1.56A2,2,0,0,1,3,17.53a1.89,1.89,0,0,1,.72.14,2,2,0,0,1,.61.41,2.74,2.74,0,0,1,.31.4,2.58,2.58,0,0,1-.31.39,2,2,0,0,1-.61.41,1.89,1.89,0,0,1-.72.14,1.93,1.93,0,0,1-1.05-.33c-.27-.16-2-1.56-2-1.56Zm14.16-2.85s3.52,2.81,4.05,3.16a4.08,4.08,0,0,0,2.14.65,3.9,3.9,0,0,0,1.45-.28A4,4,0,0,0,23,19.27a5.68,5.68,0,0,0,.64-.79,5.15,5.15,0,0,0-.64-.8,4,4,0,0,0-1.23-.83,3.9,3.9,0,0,0-1.45-.28,4,4,0,0,0-2.14.65c-.52.33-4.05,3.16-4.05,3.16Zm16.07-1.12s5.58,4.45,6.43,5a6.45,6.45,0,0,0,3.4,1,5.89,5.89,0,0,0,4.25-1.77,9.19,9.19,0,0,0,1-1.25,7.27,7.27,0,0,0-1-1.26A5.89,5.89,0,0,0,40,15.45a6.26,6.26,0,0,0-3.4,1c-.82.51-6.43,5-6.43,5Zm20.3-2.74s10.64,8.48,12.28,9.55a12.36,12.36,0,0,0,6.47,2,11.3,11.3,0,0,0,4.39-.86,11.53,11.53,0,0,0,3.72-2.51,17.67,17.67,0,0,0,1.93-2.38,13.56,13.56,0,0,0-1.93-2.41,11.53,11.53,0,0,0-3.72-2.51,11.3,11.3,0,0,0-4.39-.86,11.81,11.81,0,0,0-6.47,2c-1.58,1-12.28,9.55-12.28,9.55Zm0,33.06s10.64,8.48,12.28,9.54a12.36,12.36,0,0,0,6.47,2,11.17,11.17,0,0,0,8.11-3.37,17.67,17.67,0,0,0,1.93-2.38,13.93,13.93,0,0,0-1.93-2.41,11.53,11.53,0,0,0-3.72-2.51,11.3,11.3,0,0,0-4.39-.85,11.87,11.87,0,0,0-6.47,2c-1.58,1-12.28,9.55-12.28,9.55ZM83.78,13.25s9.65,7.69,11.14,8.66a11.25,11.25,0,0,0,5.87,1.79,10.41,10.41,0,0,0,4-.77,10.73,10.73,0,0,0,3.38-2.28,18.87,18.87,0,0,0,1.75-2.16,13.1,13.1,0,0,0-1.75-2.19A10.73,10.73,0,0,0,104.77,14a10.41,10.41,0,0,0-4-.77A10.72,10.72,0,0,0,94.92,15c-1.43.87-11.14,8.66-11.14,8.66ZM8.44,33.91s2.08,1.66,2.4,1.87a2.46,2.46,0,0,0,1.27.39,2.23,2.23,0,0,0,1.6-.66,4.91,4.91,0,0,0,.38-.47,3.26,3.26,0,0,0-.38-.47,2.23,2.23,0,0,0-1.6-.66,2.36,2.36,0,0,0-1.27.39c-.3.18-2.4,1.87-2.4,1.87Zm31.9-3.26s8.11,6.46,9.35,7.27a9.41,9.41,0,0,0,4.93,1.51A8.65,8.65,0,0,0,58,38.78a8.86,8.86,0,0,0,2.84-1.92,13.44,13.44,0,0,0,1.47-1.81,10.28,10.28,0,0,0-1.47-1.83A8.86,8.86,0,0,0,58,31.3a8.65,8.65,0,0,0-3.34-.65,9,9,0,0,0-4.93,1.51c-1.2.73-9.35,7.27-9.35,7.27ZM69,31.33s6.85,5.46,7.9,6.15A8,8,0,0,0,81,38.75a7.25,7.25,0,0,0,2.83-.55,7.54,7.54,0,0,0,2.4-1.62,11.23,11.23,0,0,0,1.24-1.53,8.61,8.61,0,0,0-1.24-1.55,7.54,7.54,0,0,0-2.4-1.62A7.25,7.25,0,0,0,81,31.33a7.67,7.67,0,0,0-4.17,1.27c-1,.62-7.9,6.15-7.9,6.15ZM92.5,27.86s13.27,10.56,15.3,11.9a15.48,15.48,0,0,0,8.08,2.46,14.29,14.29,0,0,0,5.47-1.06A14.74,14.74,0,0,0,126,38a23.41,23.41,0,0,0,2.4-3,17.48,17.48,0,0,0-2.4-3,14.74,14.74,0,0,0-4.64-3.13,14.29,14.29,0,0,0-5.47-1.06,14.77,14.77,0,0,0-8.08,2.46c-2,1.19-15.3,11.9-15.3,11.9ZM23.34,65.24s1.44.92,1.67,1a2,2,0,0,0,1.47.12,1.62,1.62,0,0,0,.5-.27,2.09,2.09,0,0,0,.26-.26,1.58,1.58,0,0,0-.26-.26,1.62,1.62,0,0,0-.5-.27,1.72,1.72,0,0,0-.6-.1,1.81,1.81,0,0,0-.87.22c-.22.1-1.67,1-1.67,1Zm14.1-1s2.92,2.33,3.37,2.63a3.49,3.49,0,0,0,1.78.54,3.26,3.26,0,0,0,1.21-.23,3.15,3.15,0,0,0,1-.7,4.1,4.1,0,0,0,.53-.65,3.71,3.71,0,0,0-.53-.66,3.12,3.12,0,0,0-1-.69,3.07,3.07,0,0,0-1.21-.24,3.23,3.23,0,0,0-1.78.55c-.43.26-3.37,2.62-3.37,2.62ZM53,63.06s5.18,4.13,6,4.65a6,6,0,0,0,3.16,1,5.61,5.61,0,0,0,2.13-.41A5.74,5.74,0,0,0,66.11,67a10.71,10.71,0,0,0,.94-1.15,7,7,0,0,0-.94-1.18,5.55,5.55,0,0,0-1.82-1.22,5.43,5.43,0,0,0-2.13-.42A5.77,5.77,0,0,0,59,64c-.77.47-6,4.65-6,4.65Zm20.16-1.33s7.63,6.08,8.8,6.85A8.92,8.92,0,0,0,86.63,70a8.3,8.3,0,0,0,3.15-.61,8.5,8.5,0,0,0,2.67-1.8,14.31,14.31,0,0,0,1.38-1.71,10,10,0,0,0-1.38-1.73,8.34,8.34,0,0,0-2.67-1.8,8.12,8.12,0,0,0-3.15-.62A8.51,8.51,0,0,0,82,63.15c-1.13.69-8.8,6.85-8.8,6.85ZM-.07,50.56s1.74,1.39,2,1.56A1.92,1.92,0,0,0,3,52.44a1.71,1.71,0,0,0,.72-.14,1.87,1.87,0,0,0,.61-.41,1.87,1.87,0,0,0,.31-.39,2.74,2.74,0,0,0-.31-.39A1.85,1.85,0,0,0,3,50.56a1.94,1.94,0,0,0-1.05.32c-.26.17-2,1.56-2,1.56Zm14.16-1s3.52,2.81,4.05,3.15a4.08,4.08,0,0,0,2.14.65,3.71,3.71,0,0,0,1.45-.28A3.67,3.67,0,0,0,23,52.29a6.36,6.36,0,0,0,.64-.78,4.36,4.36,0,0,0-.64-.8,4,4,0,0,0-1.23-.83,3.71,3.71,0,0,0-1.45-.28,3.93,3.93,0,0,0-2.14.65c-.52.33-4.05,3.15-4.05,3.15Zm16.07-1.12s5.58,4.45,6.43,5a6.53,6.53,0,0,0,3.4,1,5.93,5.93,0,0,0,4.25-1.76,9.19,9.19,0,0,0,1-1.25,6.92,6.92,0,0,0-1-1.26,6,6,0,0,0-2-1.32,5.9,5.9,0,0,0-2.3-.45,6.26,6.26,0,0,0-3.4,1c-.82.51-6.43,5-6.43,5Zm53.62-2.2S93.43,54,94.92,54.94a11.25,11.25,0,0,0,5.87,1.79,10.23,10.23,0,0,0,4-.78,10.57,10.57,0,0,0,3.38-2.28,18.07,18.07,0,0,0,1.75-2.15,13.1,13.1,0,0,0-1.75-2.19,10.57,10.57,0,0,0-3.38-2.28,10.41,10.41,0,0,0-4-.77,10.72,10.72,0,0,0-5.87,1.79c-1.43.87-11.14,8.66-11.14,8.66ZM23.34,3.51s1.44.92,1.67,1a1.87,1.87,0,0,0,.87.22,1.72,1.72,0,0,0,.6-.1,1.62,1.62,0,0,0,.5-.27,3.33,3.33,0,0,0,.26-.25A1.58,1.58,0,0,0,27,3.87a1.62,1.62,0,0,0-.5-.27,2,2,0,0,0-.6-.09,1.91,1.91,0,0,0-.87.21c-.22.11-1.67,1-1.67,1Zm14.1-1s2.92,2.33,3.37,2.62a3.41,3.41,0,0,0,1.78.55,3.07,3.07,0,0,0,1.21-.24,3.12,3.12,0,0,0,1-.69,5.25,5.25,0,0,0,.53-.65,3.11,3.11,0,0,0-.53-.66,3.15,3.15,0,0,0-1-.7,3.26,3.26,0,0,0-1.21-.23,3.29,3.29,0,0,0-1.78.54c-.43.27-3.37,2.63-3.37,2.63ZM53,1.33S58.2,5.46,59,6a6,6,0,0,0,3.16,1,5.43,5.43,0,0,0,2.13-.42A5.55,5.55,0,0,0,66.11,5.3a9.78,9.78,0,0,0,.94-1.16A6.94,6.94,0,0,0,66.11,3a5.74,5.74,0,0,0-1.82-1.23,5.61,5.61,0,0,0-2.13-.41,5.77,5.77,0,0,0-3.16,1c-.77.46-6,4.65-6,4.65ZM73.18,0S80.81,6.08,82,6.85a8.92,8.92,0,0,0,4.65,1.42,8.12,8.12,0,0,0,3.15-.62,8.34,8.34,0,0,0,2.67-1.8,14.34,14.34,0,0,0,1.38-1.7,9.61,9.61,0,0,0-1.38-1.74A8.5,8.5,0,0,0,89.78.61,8.3,8.3,0,0,0,86.63,0,8.51,8.51,0,0,0,82,1.42c-1.13.68-8.8,6.85-8.8,6.85ZM24.1,33s3.52,2.81,4.06,3.15a4,4,0,0,0,2.13.65A3.7,3.7,0,0,0,33,35.7a6.36,6.36,0,0,0,.64-.78,4.36,4.36,0,0,0-.64-.8,4,4,0,0,0-1.23-.83A3.67,3.67,0,0,0,30.29,33a3.93,3.93,0,0,0-2.13.65c-.53.33-4.06,3.15-4.06,3.15Z"/></svg>